<svg width="756" height="668" viewBox="0 0 756 668" fill="none" xmlns="http://www.w3.org/2000/svg">
<path fill-rule="evenodd" clip-rule="evenodd" d="M587.802 373.575C587.802 358.495 586.678 343.752 584.54 329.46H630.454L755.82 0.516479H139.006L67.8837 187.214C25.9064 237.968 0.699707 302.902 0.699707 373.575C0.699707 535.29 132.592 667.183 294.308 667.183C455.909 667.183 587.801 535.29 587.802 373.575ZM569.233 373.575C569.233 351.969 566.647 331.037 561.919 310.781H617.625L728.812 19.1967H151.836L84.0907 196.667C43.6894 244.609 19.3813 306.39 19.3813 373.575C19.3813 525.05 142.835 648.502 294.308 648.502C445.668 648.502 569.233 525.047 569.233 373.575Z" fill="#FFF200"/>
<path d="M561.919 310.781C566.647 331.037 569.233 351.969 569.233 373.575C569.233 525.047 445.668 648.502 294.308 648.502C142.835 648.502 19.3813 525.05 19.3813 373.575C19.3813 306.39 43.6894 244.609 84.0907 196.667L151.836 19.1967H728.812L617.625 310.781H561.919Z" fill="black"/>
<path d="M294.308 600.45C419.224 600.45 521.181 498.49 521.181 373.575C521.181 248.659 419.224 146.701 294.308 146.701C169.391 146.701 67.4333 248.659 67.4333 373.575C67.4333 498.49 169.391 600.45 294.308 600.45Z" fill="#39B54A"/>
<path d="M112.898 319.67H124.602V388.318C124.602 397.321 122.464 405.198 118.414 411.838C114.25 418.477 106.483 421.854 95.1163 421.854H88.479V409.025H96.695C101.983 409.025 105.923 407.337 108.735 404.074C111.548 400.698 112.899 396.083 112.899 390.231V319.67H112.898Z" fill="#FFF200"/>
<path d="M131.355 421.852L131.58 353.992C131.58 350.616 132.031 347.466 132.705 344.428C133.38 341.388 134.504 338.239 135.968 335.202C138.668 329.686 142.045 325.41 146.209 322.484C154.987 316.295 167.592 316.744 176.371 322.484C180.871 325.522 184.585 329.911 187.172 335.652C188.524 338.575 189.424 341.84 190.099 345.44C190.773 349.043 191.111 352.868 191.111 357.144V421.852H179.521V375.376H148.011V362.322H179.409L179.521 358.268C179.521 349.94 178.169 343.415 175.357 338.688C169.616 328.786 153.525 327.548 147.56 338.126C144.748 343.078 143.396 348.366 143.396 353.992V421.852H131.355Z" fill="#FFF200"/>
<path d="M192.574 421.852L202.366 331.148C202.703 326.872 203.827 323.608 205.966 321.244C207.879 318.882 210.243 317.643 212.83 317.643C214.858 317.643 216.882 318.656 219.02 320.568C220.822 322.595 222.17 325.295 222.958 328.784L241.303 399.119L258.859 330.247C260.996 322.143 264.598 317.979 269.548 317.979C272.25 317.979 274.499 318.992 276.302 321.018C278.214 323.043 279.227 325.744 279.564 329.008L290.032 421.85H277.654L269.1 338.123L249.068 414.311C248.506 417.011 247.38 419.038 245.919 420.498C244.342 421.962 242.655 422.75 240.855 422.75C237.254 422.75 234.776 420.05 233.315 414.65L213.283 337.786L205.067 421.85H192.574V421.852Z" fill="#FFF200"/>
<path d="M290.932 421.852L291.269 353.992C291.269 350.616 291.605 347.466 292.281 344.428C293.068 341.388 294.194 338.239 295.657 335.202C298.245 329.686 301.734 325.41 305.897 322.484C314.564 316.295 327.168 316.744 335.945 322.484C340.558 325.522 344.16 329.911 346.749 335.652C348.098 338.575 349.112 341.84 349.788 345.44C350.461 349.043 350.8 352.868 350.8 357.144V421.852H339.209V375.376H307.586V362.322H339.097L339.209 358.268C339.209 349.94 337.746 343.415 335.045 338.688C329.193 328.786 313.101 327.548 307.136 338.126C304.324 343.078 302.973 348.366 302.973 353.992V421.852H290.932Z" fill="#FFF200"/>
<path d="M360.141 319.671H372.181V421.853H360.141V319.671Z" fill="#FFF200"/>
<path d="M381.861 359.282C382.649 355.794 383.663 352.418 385.124 349.266C387.601 343.189 391.091 337.901 395.704 333.399C397.729 331.373 399.981 329.461 402.341 327.773C404.819 326.085 407.293 324.509 409.883 323.159C415.059 320.909 420.009 319.67 424.736 319.67H435.991V332.499H426.651C423.161 332.499 419.896 333.062 416.859 334.074C413.709 335.087 410.895 336.662 408.195 338.575C403.129 342.29 399.417 347.017 396.941 352.867C390.977 367.386 392.665 383.365 400.656 396.87C405.381 404.973 414.048 409.023 426.427 409.023H435.993V421.853H424.288C416.073 421.853 408.648 419.49 401.893 414.987C395.143 410.373 389.965 404.185 386.477 396.307C381.185 385.053 379.385 371.55 381.861 359.282Z" fill="#FFF200"/>
<path d="M440.268 421.852L440.492 353.992C440.492 350.616 440.942 347.466 441.617 344.428C442.292 341.388 443.417 338.239 444.881 335.202C447.58 329.686 450.958 325.41 455.122 322.484C459.286 319.446 464.012 317.983 469.188 317.983H469.75C475.492 317.983 480.668 319.559 485.282 322.484C489.784 325.522 493.497 329.911 496.085 335.652C497.437 338.575 498.337 341.84 499.012 345.44C499.685 349.043 500.024 352.868 500.024 357.144V421.852H488.434V375.376H456.924V362.322H488.321L488.433 358.268C488.433 349.94 487.081 343.415 484.269 338.688C481.23 333.512 476.617 330.811 470.54 330.811H470.202C463.788 330.811 459.174 333.287 456.472 338.126C453.66 343.078 452.309 348.366 452.309 353.992V421.852H440.268Z" fill="#FFF200"/>
<path d="M597.932 273.08L607.61 247.422L444.094 161.67L680.196 51.0456H615.938L413.71 145.802L233.088 51.0443H174.344L363.517 150.19C390.64 158.63 415.736 172.022 437.793 189.127L597.932 273.08Z" fill="#FFF200"/>
<path d="M599.394 51.0444H248.167L413.934 137.923L599.394 51.0444Z" fill="#39B54A"/>
<path d="M508.015 278.932H593.88L459.736 208.596C479.88 228.74 496.312 252.598 508.015 278.932Z" fill="#39B54A"/>
<path d="M167.032 468.576L183.808 487.854L177.739 493.132L166.895 480.672L160.949 485.846L170.327 496.62L164.461 501.723L155.087 490.948L143.888 500.692L137.955 493.876L167.032 468.576Z" fill="black"/>
<path d="M185.52 489.458L207.184 506.627L202.191 512.93L187.607 501.375L183.417 506.662L196.744 517.222L191.916 523.317L178.591 512.754L174.032 518.507L188.993 530.366L183.629 537.135L161.585 519.662L185.52 489.458Z" fill="black"/>
<path d="M204.73 539.386L208.552 541.3C214.751 544.222 218.512 542.785 221.97 535.882C225.11 529.608 223.591 525.042 218.074 522.281L214.252 520.365L204.73 539.386ZM210.036 508.597L223.372 515.274C232.886 520.04 235.363 529.308 230.023 539.974C224.368 551.272 215.546 554.46 206.119 549.74L192.784 543.062L210.036 508.597Z" fill="black"/>
<path d="M241.261 523.565L268.004 530.561L265.969 538.342L247.969 533.633L246.261 540.161L262.712 544.465L260.745 551.983L244.293 547.681L242.437 554.783L260.908 559.615L258.724 567.971L231.51 560.851L241.261 523.565Z" fill="black"/>
<path d="M279.606 548.311L287.174 548.712C289.89 548.853 291.432 547.315 291.586 544.404C291.737 541.548 289.768 540.145 287.246 540.013L280.066 539.635L279.606 548.311ZM271.468 531.125L289.126 532.059C295.238 532.381 301.093 535.772 300.682 543.532C300.462 547.683 298.46 551.523 294.738 552.895L294.733 553.003C298.369 554.168 299.193 558.805 299.29 562.485C299.301 564.108 299.147 569.776 300.286 571.24L291.359 570.771C290.651 569.436 290.705 565.653 290.665 564.571C290.628 560.677 290.257 556.659 286.036 556.436L279.196 556.073L278.454 570.088L269.43 569.613L271.468 531.125Z" fill="black"/>
<path d="M317.893 554.812L325.673 553.627L319.846 540.864L319.751 540.879L317.893 554.812ZM313.675 530.996L322.754 529.613L341.381 565.757L332.063 567.176L328.911 560.669L316.951 562.491L315.831 569.649L306.658 571.048L313.675 530.996Z" fill="black"/>
<path d="M361.029 527.528L351.213 530.803L360.673 559.169L352.103 562.029L342.641 533.663L332.825 536.937L330.093 528.744L358.299 519.336L361.029 527.528Z" fill="black"/>
<path d="M360.764 517.516L368.845 513.474L386.086 547.942L378.006 551.984L360.764 517.516Z" fill="black"/>
<path d="M404.278 527.428C409.015 524.029 407.497 518.077 404.161 513.428C400.826 508.78 395.674 505.431 390.938 508.832C386.201 512.231 387.719 518.181 391.055 522.832C394.39 527.48 399.542 530.827 404.278 527.428ZM385.903 501.813C394.786 495.441 404.99 499.081 411.503 508.16C418.017 517.24 418.195 528.073 409.313 534.447C400.43 540.817 390.226 537.177 383.713 528.097C377.199 519.019 377.022 508.184 385.903 501.813Z" fill="black"/>
<path d="M401.971 490.678L408.184 483.787L433.892 490.743L433.957 490.671L416.319 474.766L422.011 468.454L450.636 494.262L444.421 501.151L418.512 494.015L418.448 494.087L436.288 510.171L430.595 516.485L401.971 490.678Z" fill="black"/>
<path d="M150.321 238.744L168.859 221.159L174.394 226.994L162.41 238.36L167.834 244.078L178.195 234.248L183.545 239.887L173.182 249.716L183.399 260.486L176.843 266.704L150.321 238.744Z" fill="black"/>
<path d="M208.649 231.08C213.638 228.064 212.59 222.012 209.629 217.115C206.67 212.218 201.798 208.478 196.81 211.494C191.821 214.51 192.869 220.562 195.829 225.459C198.788 230.356 203.661 234.096 208.649 231.08ZM192.342 204.103C201.697 198.448 211.584 202.879 217.365 212.44C223.145 222.002 222.473 232.816 213.118 238.47C203.764 244.124 193.877 239.694 188.097 230.132C182.316 220.571 182.989 209.758 192.342 204.103Z" fill="black"/>
<path d="M244.928 214.723C250.492 212.985 250.918 206.857 249.21 201.395C247.502 195.934 243.664 191.139 238.1 192.879C232.536 194.619 232.109 200.746 233.817 206.207C235.522 211.669 239.362 216.463 244.928 214.723ZM235.522 184.635C245.956 181.374 254.502 188.034 257.836 198.699C261.169 209.363 257.937 219.706 247.504 222.967C237.069 226.229 228.525 219.569 225.192 208.903C221.858 198.238 225.089 187.897 235.522 184.635Z" fill="black"/>
<path d="M294.197 184.557L283.882 185.373L286.24 215.184L277.233 215.896L274.876 186.085L264.558 186.9L263.878 178.29L293.516 175.946L294.197 184.557Z" fill="black"/>
<path d="M313.471 192.595L320.403 193.536C321.943 193.746 324.184 193.123 324.555 190.396C324.935 187.615 323.276 186.463 321.397 186.208L314.467 185.267L313.471 192.595ZM311.407 207.786L318.581 208.759C321.421 209.144 323.548 208.288 323.976 205.134C324.433 201.764 322.468 200.354 319.772 199.987L312.599 199.014L311.407 207.786ZM306.557 176.348L322.637 178.531C328.572 179.227 334.839 181.822 333.757 189.791C333.292 193.214 331.085 195.748 328.187 196.879C331.684 198.552 333.469 202.39 332.881 206.723C331.647 215.815 325.251 217.78 317.885 216.78L301.373 214.538L306.557 176.348Z" fill="black"/>
<path d="M351.029 210.225L358.396 212.991L359.548 199.01L359.456 198.975L351.029 210.225ZM358.984 187.383L367.58 190.61L366.173 231.249L357.349 227.937L357.779 220.717L346.452 216.465L341.977 222.163L333.288 218.902L358.984 187.383Z" fill="black"/>
<path d="M389.79 200.876L397.415 205.727L381.364 230.959L395.012 239.642L390.378 246.93L369.103 233.398L389.79 200.876Z" fill="black"/>
<path d="M421.278 222.602L427.834 228.82L407.253 250.515L418.99 261.648L413.046 267.914L394.754 250.562L421.278 222.602Z" fill="black"/>
</svg>
