<svg enable-background="new 0 0 612 792" height="333.658695" viewBox="30.78 89.06 553.01 615.24" width="299.70746" xmlns="http://www.w3.org/2000/svg"><g clip-rule="evenodd" fill-rule="evenodd"><path d="m55.87 136.44c83.95 43.34 167.9 35.78 251.35-47.38 83.52 83.16 167.47 90.72 251.5 47.38 83.16 263.52-50.83 469.73-251.5 567.86-200.52-98.14-334.58-304.34-251.35-567.86z" fill="#1b2b56"/><path d="m141.4 177.62 8.57.36h8.57l8.57-.43 8.57-.79 8.56-1.23 8.57-1.58 8.57-2.02 8.57-2.45 8.49-2.8 8.5-3.24 8.42-3.68 8.43-4.03 8.42-4.53 8.35-4.9 8.36-5.33 8.28-5.76 8.28-6.12 8.28-6.62 8.2-7.06 5.26-4.82 5.4 4.82 8.21 7.06 8.21 6.62 8.28 6.12 8.28 5.76 8.35 5.33 8.42 4.9 8.35 4.53 8.43 4.03 8.49 3.68 8.5 3.24 8.5 2.8 8.49 2.45 8.57 2.02 8.57 1.58 8.57 1.23 8.56.79 8.57.43h8.57l8.57-.36 8.57-.72 8.49-1.15 8.5-1.44 8.49-1.87 8.5-2.16 8.42-2.52 8.43-2.88 8.35-3.17 7.99-3.39 1.95 6.63 5.76 23.54 4.6 23.11 3.39 22.76 2.3 22.39 1.15 21.96.08 21.53-.94 21.16-1.94 20.74-2.88 20.3-3.96 19.88-4.83 19.44-5.69 19-6.62 18.58-7.49 18.14-8.28 17.72-9.07 17.28-9.94 16.77-10.65 16.27-11.31 15.84-12.09 15.34-12.75 14.83-13.46 14.26-14.04 13.82-14.62 13.25-15.19 12.74-15.77 12.17-16.34 11.59-16.78 11.02-17.2 10.44-17.72 9.86-11.3 5.76-11.16-5.76-17.71-9.86-17.28-10.44-16.78-11.02-16.27-11.59-15.77-12.17-15.26-12.74-14.62-13.25-14.04-13.82-13.39-14.26-12.74-14.83-12.1-15.34-11.38-15.84-10.65-16.27-9.87-16.77-9.07-17.28-8.35-17.72-7.42-18.14-6.62-18.58-5.76-19-4.82-19.44-3.89-19.88-2.95-20.3-1.95-20.74-.93-21.16.14-21.53 1.15-21.96 2.23-22.39 3.46-22.76 4.54-23.11 5.76-23.54 1.94-6.63 7.99 3.39 8.43 3.17 8.42 2.88 8.42 2.52 8.43 2.16 8.49 1.87 8.5 1.44 8.57 1.15z" fill="#fff"/><path d="m391.03 204.4c41.33 11.16 88.85 11.02 134.14.43 27.14 111.38 6.26 214.92-49.68 299.23-11.66-52.13-41.33-95.47-84.17-120.02l-.29-.14z" fill="#ca2127"/><path d="m223.12 204.48c33.77-9 63.36-25.56 84.1-49.97 20.81 24.34 50.26 40.82 83.81 49.9v179.5c-24.34-13.9-52.85-21.74-84.67-21.74-31.1 0-59.04 7.49-83.02 20.81-.07 0-.14.07-.22.14z" fill="#fcd404"/><path d="m137.66 501.98c-54.94-83.95-75.24-186.7-48.31-297.14 45.14 10.58 92.52 10.73 133.78-.36v178.63c-43.21 23.97-73.3 66.96-85.47 118.87z" fill="#214290"/><path d="m438.55 551.44c-6.12 6.7-12.38 13.25-18.94 19.58-14.47-30.74-25.92-85.25-12.53-100.01 17.28 19.38 32.26 41.34 31.47 80.43z" fill="#ca2127"/><path d="m175.46 550.87c-7.78-8.64-15.12-17.5-22.03-26.57 11.38-83.74 69.12-147.38 152.93-147.38 84.46 0 142.49 64.73 153.14 149.47-4.82 6.34-9.94 12.53-15.26 18.65 1.44-18.65.65-37.44-7.56-56.95-5.83-13.82-17.14-28.01-30.6-42.7 6.77 3.6 15.48 9.36 25.13 16.2-12.17-23.26-31.54-39.82-54.65-52.92l3.74 10.94c6.26 2.66 12.53 6.48 18.79 15.7-6.7-4.82-13.68-8.35-20.81-10.58l-45.65 13.18-50.83-17.5c-8.86 2.52-16.42 5.33-22.97 8.35l7.06-6.84c4.54-2.88 9.14-5.69 13.75-8.57l11.52-17.57c-36.65 5.76-69.7 26.06-88.42 56.3l20.74-.14c6.48-5.62 14.11-11.23 22.54-16.99 0 .5 0 .94-.22 1.08-8.64 6.84-14.47 13.61-18.22 20.45l-1.3 48.31-27.14 32.47c-.36 10.44-.5 20.59.5 28.87-3.17-8.64-5.47-18.36-7.56-28.44l-20.08-12.53c0 9.51 1.16 18.15 3.46 25.71z" fill="#214290"/><path d="m307.22 650.59c-22.32-11.45-43.34-24.34-63-38.45-18.07-24.26-24.84-51.77-22.97-71.78 1.73-18.86 12.24-34.06 32.26-45.36-10.44 14.83-18.43 30.53-16.56 47.95h.79c4.9-30.74 23.76-39.53 42.98-40.82 16.99-1.15 35.35 3.74 51.05-1.51l19.87 12.24-12.67-18.36c11.16-17.57 25.99-31.97 48.74-37.51-21.1 20.23-9.65 76.97 26.86 118.8-4.82 4.54-9.79 8.93-14.83 13.25-21.67-10.3-40.9-31.9-57.82-60.62 7.78 31.25 19.3 58.46 36.86 77.47-2.95 2.23-5.9 4.39-8.93 6.62-24.41-16.56-47.38-50.04-56.95-95.98-5.04 36 10.87 80.06 53.5 98.42-5.18 3.67-10.44 7.2-15.84 10.66-25.06-16.42-60.7-57.31-67.61-106.27-5.04 39.82 5.9 88.63 61.2 110.38-6.34 3.96-12.82 7.78-19.44 11.52-26.06-14.9-50.9-46.15-62.5-95.4-1.94 45.58 13.25 80.71 57.82 97.99-4.17 2.29-8.49 4.6-12.81 6.76z" fill="#ca2127"/><path d="m325.58 488.16c14.04-15.41 30.53-27.29 50.54-34.2-19.3-5.54-35.28-6.77-50.54-2.3v9.5l11.09-.79-11.09 7.49zm-38.38-11.96c11.45.86 17.42.07 21.38 2.02 4.75 2.23 6.98 10.01 11.09 16.78 1.94-2.38 3.89-4.68 5.9-6.84v-20.3l-3.17 2.23-7.85-8.06 11.02-.86v-9.5c-12.81 3.73-25.05 11.65-38.37 24.53z" fill="#ca2127"/><path d="m471.45 329.61 4.54-13.97h5.33l4.54 13.97h31.25l-19.66-59.98-.43-1.08-.5-1.15-.5-1.15-.65-1.01-.65-1.01-.79-1.01-.79-.86-.86-.86-.94-.72-.94-.72-1.01-.65-1.01-.5-1.08-.5-1.08-.43-1.08-.36-1.15-.22-1.08-.29-1.08-.14-1.15-.07-1.15-.07h-1.08-1.15l-1.15.14-1.08.07-1.15.14-1.15.22-1.15.22-1.08.29-1.15.29-1.15.36-1.15.36-3.53 1.22-7.06-1.8-1.51-.36-1.51-.29-1.44-.29-1.37-.14-1.3-.14-1.3-.14h-1.3-1.15l-1.22.07-1.15.14-1.08.14-1.08.29-1.08.29-1.01.36-1.01.43-.94.5-.86.5-.79.65-.79.58-.72.72-.65.72-.58.72-.5.72-.43.72-.43.72-.29.72-.29.72-.29.65-.22.72-.22.58-.14.58-2.09 8.28-1.94-8.21-.14-.65-.22-.72-.22-.79-.29-.79-.36-.79-.43-.72-.43-.79-.5-.79-.58-.79-.65-.72-.65-.72-.79-.72-.86-.58-.86-.58-.94-.5-1.01-.43-1.01-.36-1.01-.36-1.08-.22-1.08-.22-1.15-.14-1.15-.07h-1.15-1.22l-1.22.07-1.3.14-1.3.14-1.37.22-1.44.22-1.44.36-1.58.36-8.21 2.09.65 2.02-1.37-.94-1.44-.94-1.58-.86-1.66-.79-1.66-.72-1.73-.58-1.8-.58-1.8-.43-1.87-.29-1.87-.29-1.94-.14h-1.94v27.43h.14.14.14.07l.07.07h.07l.07.07h.07l.07.07.07.07.07.07.14.14.14.22.14.14.14.29.14.29.14.29.22.36.14.43.14.43.14.43.14.5.07.58.14.5.07.65.14.58.07.65.07.65v.72l.07.72v.72.72.72.72l-.07.72v.72l-.07.65-.07.65-.14.58-.07.65-.14.5-.14.58-.14.5-.14.43-.14.43-.14.43-.14.36-.14.29-.22.29-.14.29-.14.22-.14.14-.07.14-.14.07-.07.07-.07.07-.07.07h-.07l-.07.07h-.07-.07l-.07.07h-.14-.14v27.22h2.02l2.02-.14 1.94-.29 1.94-.29 1.87-.43 1.8-.5 1.73-.65 1.73-.65 1.66-.79 1.58-.94 1.51-.94 1.44-1.01 1.37-1.08 1.3-1.22 1.22-1.22 1.15-1.3 1.08-1.37 1.01-1.44.94-1.44.86-1.51.79-1.51.65-1.58.65-1.66.58-1.66.5-1.66.43-1.73.22-1.08 8.71 26.64zm-101.3-73.73h-.07-2.02l-1.94.14-1.87.29-1.87.29-1.8.43-1.8.58-1.73.58-1.66.72-1.66.79-1.51.86-1.51.94-1.44 1.01-1.37 1.08-1.3 1.15-1.3 1.22-1.15 1.3-1.08 1.37-1.01 1.37-1.01 1.51-.86 1.44-.79 1.58-.07.07-.72-1.51-.86-1.51-.94-1.44-1.08-1.37-1.15-1.3-1.22-1.3-1.3-1.15-1.37-1.15-1.44-1.01-1.51-.94-1.58-.86-1.73-.79-1.73-.65-1.73-.65-1.87-.5-1.87-.43-2.02-.36-2.02-.29-2.09-.22v28.94.14l.14.43.07.43.14.58.07.58.07.65v.72l.07.72v.86l-.07 1.15.07 1.15v.79l-.07.79v.72l-.07.72-.07.65-.14.65-.07.58-.14.5v30.38l.86-.07 2.02-.29 1.94-.29 1.94-.43 1.8-.5 1.8-.58 1.73-.65 1.66-.79 1.58-.79 1.58-.94 1.44-.94 1.37-1.08 1.3-1.15 1.3-1.22 1.15-1.22 1.08-1.37 1.01-1.37.86-1.44.86-1.44.43-.79.22.65.79 1.51.86 1.51.94 1.44 1.01 1.44 1.08 1.37 1.15 1.3 1.22 1.22 1.3 1.22 1.37 1.08 1.44 1.01 1.51.94 1.58.94 1.66.79 1.73.65 1.73.65 1.8.5 1.87.43 1.94.29 1.94.29 2.02.14h2.09.07v-27.22h-.13-.14l-.07-.07h-.14l-.07-.07h-.07l-.07-.07-.07-.07-.07-.07-.14-.07-.14-.14-.14-.14-.14-.22-.14-.29-.14-.29-.14-.29-.14-.36-.22-.43-.14-.43-.14-.43-.14-.5-.07-.58-.14-.58-.07-.58-.14-.58-.07-.65-.07-.65v-.72l-.07-.72v-.72-.72-.72-.72-.72l.07-.72.07-.65.07-.65.07-.58.14-.65.07-.5.14-.58.14-.5.14-.43.14-.43.14-.43.14-.36.22-.29.14-.29.14-.29.14-.14.14-.22.07-.14.14-.07.07-.07.07-.07h.07l.07-.07h.07l.07-.07h.07.07.14.22zm-59.04 1.3-2.09-.14c-9.5-.22-19.8.29-29.16 1.94v45.14l-.72-.36-.86-.43-.94-.29-.94-.22-.94-.22-.86-.07-.94-.07h-.86-8.64v-27.43-1.44l-.07-1.58-.14-1.58-.29-1.44-.36-1.44-.5-1.37-.65-1.37-.72-1.22-.79-1.15-.94-1.01-1.01-.94-1.08-.79-1.08-.72-1.15-.58-1.08-.43-1.15-.36-1.08-.29-1.08-.22-1.08-.14-1.01-.14h-1.01l-1.01-.07-.94.07h-.94l-.86.07-.86.07-.86.07-.79.07-.72.14-.72.07-.65.07-6.26.86v13.39l-.07-.22-1.01-1.41-1.01-1.37-1.08-1.37-1.22-1.3-1.22-1.22-1.3-1.15-1.44-1.08-1.44-1.01-1.51-1.01-1.58-.86-1.58-.72-1.73-.72-1.73-.58-1.8-.58-1.8-.43-1.87-.29-1.94-.29-1.94-.14h-1.94v27.43h.14.22.07.14l.07.07h.07l.07.07h.07l.07.07.07.07.14.14.07.14.14.14.14.22.14.22.14.29.22.36.14.29.14.43.14.43.14.43.14.5.14.58.07.58.14.58.07.58.07.65.07.65.07.72v.72l.07.72v.72.72l-.07.72v.72l-.07.72-.07.65-.07.65-.07.58-.14.58-.14.58-.07.58-.14.43-.14.5-.14.43-.22.36-.14.36-.14.36-.14.29-.14.22-.22.22-.07.22-.14.14-.14.07-.07.07-.07.07-.07.07h-.07l-.07.07h-.07-.07-.14l-.14.07h-.14v27.22h2.02l2.02-.14 2.02-.29 1.87-.29 1.94-.43 1.8-.5 1.8-.65 1.73-.65 1.66-.79 1.58-.86 1.51-1.01 1.44-1.01 1.37-1.08 1.37-1.15 1.22-1.3 1.15-1.3 1.08-1.37 1.01-1.37.65-1.08v13.54l50.69-.29c8.64 0 17.35.5 25.92.07l1.22-.07v-30.38l-.14.5-.22.5-.14.36-.07.14v-15.55l.07.07.14.29.14.29.07.29.14.29v-28.95zm-107.07-1.3h-.07-2.02l-1.94.14-1.94.29-1.87.29-1.8.43-1.8.58-1.73.58-1.73.72-1.58.72-1.58.86-1.51 1.01-1.44 1.01-1.44 1.08-1.3 1.15-1.22 1.22-1.22 1.3-1.08 1.37-1.08 1.37-.94 1.44-.86 1.51-.86 1.51-.22.5-1.15-16.2-6.12-.86-.94-.14-.86-.14-.86-.07-.88-.15-.86-.07-.86-.07-.86-.14h-.86l-.79-.07h-.86-.86-.79l-.86.07-.86.07-.86.14-.86.14-.86.22-.94.29-.86.36-.86.36-.86.5-.79.5-.79.65-.86.65-.65.72-.65.72-.58.86-.58.79-.43.86-.43.86-.36.86-4.18 11.09-4.32-11.3-.36-.86-.43-.86-.5-.86-.5-.86-.58-.79-.65-.72-.72-.72-.72-.72-.79-.58-.86-.5-.86-.5-.86-.36-.86-.36-.86-.29-.86-.22-.94-.14-.79-.07-.86-.07-.86-.07h-.86-.79-.86l-.79.07-.86.07-.86.07-.79.14-.86.07-.86.14-.86.07-.94.14-.86.14-6.12.86-4.9 70.78h29.95l.72-10.58h17.57l.72 10.58h30.02l-.86-11.59.5.65 1.08 1.37 1.15 1.3 1.22 1.3 1.37 1.15 1.37 1.08 1.44 1.01 1.51 1.01 1.58.86 1.66.79 1.73.65 1.8.65 1.8.5 1.87.43 1.94.29 2.02.29 2.02.14h2.09.07v-27.22h-.22l-.14-.07h-.07-.07-.07l-.07-.07h-.07l-.07-.07-.07-.07-.14-.07-.07-.07-.14-.14-.14-.22-.14-.22-.14-.22-.14-.29-.14-.36-.22-.36-.14-.36-.14-.43-.14-.5-.14-.5-.14-.5-.07-.58-.14-.58-.07-.58-.07-.65-.07-.65-.07-.72v-.72l-.07-.72v-.72-.72-.72l.07-.72.07-.65.07-.72.07-.65.07-.58.07-.58.14-.58.14-.58.14-.5.14-.43.14-.43.14-.43.14-.36.14-.29.22-.29.14-.22.14-.22.07-.14.14-.14.14-.14.07-.07.07-.07h.07l.07-.07h.07l.07-.07h.07.14.14.22v-27.43z" fill="#1b2b56"/><g fill="#fff"><path d="m239.83 323.13h40.1c0-9.5-.43-14.18-7.2-14.18h-15.05v-33.98c.43-14.11-11.45-11.88-17.86-11.02v59.18z"/><path d="m204.04 324.86c19.22-.07 28.66-14.04 28.66-31.25s-10.51-31.18-28.66-31.25v14.4c6.98 0 9.94 7.56 9.94 16.92s-3.1 16.92-9.94 16.92zm-.07 0h.07v-14.26c-6.91 0-9.94-7.56-9.94-16.92s2.95-16.92 9.94-16.92v-14.4h-.07c-18.22 0-28.73 14.04-28.73 31.25 0 17.28 9.51 31.25 28.73 31.25z"/><path d="m370.15 324.86c19.01-.07 28.37-14.04 28.37-31.25s-10.44-31.18-28.37-31.25v14.4c6.91 0 9.86 7.56 9.86 16.92s-3.02 16.92-9.86 16.92zm-.07 0h.07v-14.26c-6.84 0-9.86-7.56-9.86-16.92s2.95-16.92 9.86-16.92v-14.4h-.07c-18 0-28.44 14.04-28.44 31.25 0 17.28 9.43 31.25 28.44 31.25z"/><path d="m417.52 323.42h19.87l19.01-58.39c-15.77-4.25-19.08 1.08-20.23 5.83l-8.57 34.06-8.06-34.06c-1.37-5.69-5.26-10.08-21.02-5.83z"/><path d="m478.44 309.16h7.56l4.61 13.97h17.5l-16.85-51.34c-1.94-6.12-6.77-8.57-12.82-8.5v14.98c.36 2.02.5 4.03 1.08 6.05l3.53 13.39h-4.61zm-29.24 13.97h17.5l4.61-13.97h7.13v-11.45h-4.68l3.53-13.39c.58-2.02.79-4.03 1.15-6.05v-14.97c-3.17.07-6.7.86-10.3 2.16z"/><path d="m311.11 322.77c17.78-1.8 25.27-13.82 25.34-30.38-.07-16.49-7.7-27.07-25.34-28.66v13.75c5.04 1.8 7.42 6.77 7.06 14.9.36 8.14-2.02 13.97-7.06 16.27zm-24.7.36c7.2 0 14.26.07 21.24-.14 1.15 0 2.3-.07 3.46-.22v-14.11c-2.02.94-4.32 1.3-7.06 1.08v-32.98c2.74-.22 5.04 0 7.06.72v-13.75c-2.02-.14-4.18-.22-6.34-.22-6.34.14-12.82.65-18.36 1.15z"/><path d="m104.68 322.92h16.85l2.02-28.94 7.06 18.36h12.31l7.85-18.86 2.02 29.45h16.85l-4.1-58.46c-9.94-1.44-15.48-2.09-18.14 4.68l-10.22 27.07-10.37-27.29c-2.66-6.77-8.14-5.98-18.07-4.54z"/></g></g></svg>